w<svg xmlns="http://www.w3.org/2000/svg" width="16" height="16" viewBox="0 0 16 16" fill="none">
<path fill-rule="evenodd" clip-rule="evenodd" d="M10.6668 4.66667C10.6668 6.13943 9.47292 7.33333 8.00016 7.33333C6.5274 7.33333 5.3335 6.13943 5.3335 4.66667C5.3335 3.19391 6.5274 2 8.00016 2C9.47292 2 10.6668 3.19391 10.6668 4.66667ZM9.3335 4.66667C9.3335 5.40305 8.73654 6 8.00016 6C7.26378 6 6.66683 5.40305 6.66683 4.66667C6.66683 3.93029 7.26378 3.33333 8.00016 3.33333C8.73654 3.33333 9.3335 3.93029 9.3335 4.66667Z" fill="#322C39"/>
<path d="M11.3335 10C11.3335 9.63181 11.035 9.33333 10.6668 9.33333H5.3335C4.96531 9.33333 4.66683 9.63181 4.66683 10V14H3.3335V10C3.3335 8.89543 4.22893 8 5.3335 8H10.6668C11.7714 8 12.6668 8.89543 12.6668 10V14H11.3335V10Z" fill="#322C39"/>
</svg>