<svg xmlns="http://www.w3.org/2000/svg" width="16" height="16" viewBox="0 0 16 16" fill="none">
<path fill-rule="evenodd" clip-rule="evenodd" d="M9.99984 7.33333C8.52708 7.33333 7.33317 6.13943 7.33317 4.66667C7.33317 3.19391 8.52708 2 9.99984 2C11.4726 2 12.6665 3.19391 12.6665 4.66667C12.6665 6.13943 11.4726 7.33333 9.99984 7.33333ZM9.99984 6C9.26346 6 8.6665 5.40305 8.6665 4.66667C8.6665 3.93029 9.26346 3.33333 9.99984 3.33333C10.7362 3.33333 11.3332 3.93029 11.3332 4.66667C11.3332 5.40305 10.7362 6 9.99984 6Z" fill="#322C39"/>
<path d="M7.33317 9.33333C6.96498 9.33333 6.6665 9.63181 6.6665 10V14H5.33317V10C5.33317 8.89543 6.2286 8 7.33317 8H12.6665C13.7711 8 14.6665 8.89543 14.6665 10V14H13.3332V10C13.3332 9.63181 13.0347 9.33333 12.6665 9.33333H7.33317Z" fill="#322C39"/>
<path d="M0.666504 7.33333H4.6665V8.66667H0.666504V7.33333Z" fill="#322C39"/>
<path d="M3.99984 10H0.666504V11.3333H3.99984V10Z" fill="#322C39"/>
<path d="M0.666504 4.66667H5.33317V6H0.666504V4.66667Z" fill="#322C39"/>
</svg>